<?xml version="1.0" standalone="no"?>
<!DOCTYPE svg PUBLIC "-//W3C//DTD SVG 20010904//EN"
 "http://www.w3.org/TR/2001/REC-SVG-20010904/DTD/svg10.dtd">
<svg version="1.0" xmlns="http://www.w3.org/2000/svg"
 width="96.000000pt" height="100.000000pt" viewBox="0 0 96.000000 100.000000"
 preserveAspectRatio="xMidYMid meet">
<metadata>
Created by potrace 1.10, written by Peter Selinger 2001-2011
</metadata>
<g transform="translate(0.000000,100.000000) scale(0.100000,-0.100000)"
fill="#e9ab72" stroke="none">
<path d="M89 895 c-33 -67 -35 -87 -26 -261 6 -108 23 -158 69 -201 60 -56
155 -68 232 -29 l47 24 33 -65 32 -65 29 64 29 63 45 -22 c139 -71 291 29 293
190 0 27 6 64 14 83 22 53 18 150 -10 210 -13 28 -29 55 -35 59 -7 4 -26 -7
-44 -25 -49 -49 -160 -98 -252 -112 -137 -19 -290 25 -383 110 l-42 39 -31
-62z m74 -19 c18 -14 53 -34 77 -45 38 -16 41 -20 19 -20 -36 -1 -127 -49
-146 -77 -23 -36 -30 -29 -28 31 2 48 29 135 42 135 2 0 19 -11 36 -24z m691
-16 c16 -41 23 -170 9 -170 -5 0 -19 16 -32 35 -23 35 -107 84 -145 86 -16 0
-14 3 9 11 17 6 53 26 80 44 28 19 53 34 56 34 4 0 14 -18 23 -40z m-326 -112
c-21 -21 -40 -49 -44 -63 -8 -32 -20 -32 -28 0 -4 14 -23 42 -44 63 l-37 37
95 0 95 0 -37 -37z m-206 22 c46 -13 104 -76 118 -131 22 -80 -18 -172 -90
-209 -118 -60 -253 27 -253 164 0 58 17 98 61 139 45 43 98 55 164 37z m397 0
c108 -31 158 -170 98 -272 -83 -143 -293 -101 -323 65 -18 103 67 211 171 216
11 1 36 -3 54 -9z m-199 -339 c-1 -3 -12 -19 -25 -36 l-25 -30 0 80 0 80 25
-44 c14 -23 25 -46 25 -50z m-65 1 c-12 -13 -24 22 -12 37 10 12 13 11 15 -8
2 -13 1 -26 -3 -29z"/>
<path d="M231 623 c-21 -26 -21 -53 1 -80 17 -21 76 -16 88 6 16 31 12 48 -12
47 -19 -1 -23 4 -23 27 1 36 -26 36 -54 0z"/>
<path d="M666 625 c7 -29 -18 -44 -41 -25 -12 10 -15 9 -15 -7 0 -10 7 -29 16
-41 29 -42 104 -18 104 34 0 29 -28 64 -51 64 -16 0 -18 -5 -13 -25z"/>
<path d="M50 155 l0 -95 430 0 430 0 0 95 0 95 -430 0 -430 0 0 -95z m320 55
c11 -11 20 -33 20 -50 0 -17 -9 -39 -20 -50 -11 -11 -20 -24 -20 -30 0 -17
-14 -11 -44 20 -37 38 -40 85 -7 112 30 23 46 23 71 -2z m-212 -18 c2 -13 -1
-29 -7 -35 -6 -8 -6 -18 -1 -27 13 -21 12 -30 -4 -30 -7 0 -16 9 -19 20 -3 11
-13 20 -22 20 -12 0 -16 -6 -12 -20 3 -13 0 -20 -9 -20 -10 0 -14 15 -14 61
l0 60 43 -3 c35 -3 43 -7 45 -26z m42 13 c0 -8 -4 -15 -10 -15 -5 0 -10 7 -10
15 0 8 5 15 10 15 6 0 10 -7 10 -15z m274 6 c11 -16 -27 -22 -43 -6 -14 13
-13 15 11 15 15 0 29 -4 32 -9z m236 -23 c13 -25 13 -31 0 -55 -13 -23 -24
-29 -58 -31 l-42 -3 0 61 0 61 42 -3 c34 -2 45 -8 58 -30z m-461 -19 c-11 -6
-11 -11 -1 -21 18 -18 14 -45 -8 -51 -13 -3 -20 0 -20 9 0 8 5 14 12 14 9 0 9
3 0 12 -16 16 -15 45 1 51 18 7 31 -4 16 -14z m336 11 c6 0 9 -17 7 -39 -3
-32 -8 -40 -29 -44 -16 -3 -32 2 -44 14 -23 23 -23 28 -3 58 12 16 23 21 38
17 11 -3 26 -6 31 -6z m206 0 c26 -15 26 -66 -1 -80 -14 -8 -26 -8 -40 0 -26
14 -27 65 -2 79 21 13 20 13 43 1z m97 -9 c3 -9 0 -11 -7 -7 -7 4 -18 2 -26
-4 -19 -16 -2 -52 20 -44 8 4 15 2 15 -4 0 -20 -31 -21 -50 -2 -24 24 -24 29
-4 58 17 25 44 26 52 3z m-688 -31 c0 -22 -4 -40 -10 -40 -5 0 -10 18 -10 40
0 22 5 40 10 40 6 0 10 -18 10 -40z m230 12 c0 -16 3 -32 7 -35 11 -12 33 14
33 39 0 13 5 24 10 24 6 0 10 -18 10 -39 0 -39 0 -39 -37 -38 -36 2 -38 4 -41
40 -2 21 1 37 7 37 6 0 11 -13 11 -28z"/>
<path d="M304 186 c-12 -31 0 -61 25 -61 31 0 50 28 35 53 -14 22 -52 28 -60
8z"/>
<path d="M90 180 c0 -16 5 -21 23 -18 12 2 22 10 22 18 0 8 -10 16 -22 18 -18
3 -23 -2 -23 -18z"/>
<path d="M635 160 c0 -38 2 -41 25 -38 21 3 25 8 25 38 0 30 -4 35 -25 38 -23
3 -25 0 -25 -38z"/>
<path d="M537 164 c-16 -16 -7 -44 14 -44 15 0 20 5 17 22 -3 22 -19 33 -31
22z"/>
<path d="M757 164 c-16 -16 -7 -44 14 -44 15 0 20 5 17 22 -3 22 -19 33 -31
22z"/>
</g>
</svg>
